<svg version="1.1" id="Layer_1" xmlns="http://www.w3.org/2000/svg" xmlns:xlink="http://www.w3.org/1999/xlink" x="0px" y="0px"
	 width="100%" viewBox="0 0 832 592" enable-background="new 0 0 832 592" xml:space="preserve">
<path fill="#000000" opacity="1.000000" stroke="none" 
	d="
M314.845825,477.208710 
	C266.865143,446.448517 236.441422,403.581085 224.876419,348.171539 
	C213.010635,291.320923 224.398117,238.756851 257.263184,190.896927 
	C263.496735,181.819275 270.647095,173.453644 278.445923,165.660522 
	C292.812775,151.304214 315.193909,150.881104 329.255890,164.701996 
	C343.428925,178.632019 343.603180,200.786179 329.501221,215.439224 
	C301.104034,244.946152 288.425201,280.296967 292.590515,320.806427 
	C298.285187,376.189636 338.578827,421.941315 394.839447,433.523987 
	C466.645905,448.307159 536.831360,400.509064 548.303955,328.244202 
	C555.031311,285.869019 543.385620,248.418640 513.638733,217.068039 
	C499.483032,202.149139 497.937561,182.814331 510.002747,167.724579 
	C522.940979,151.542908 548.109375,150.218674 562.767883,164.877243 
	C591.640625,193.750122 610.693848,228.223770 617.706421,268.293488 
	C630.434998,341.024384 610.416443,403.988159 556.459412,454.829010 
	C524.057190,485.359924 484.832153,502.274872 440.358002,506.436462 
	C395.425629,510.640869 353.649811,501.050140 314.845825,477.208710 
z"/>
<path fill="#000000" opacity="1.000000" stroke="none" 
	d="
M385.207642,275.272156 
	C385.184937,254.345032 385.035034,233.873627 385.099731,213.402908 
	C385.199127,181.957214 385.087433,150.504211 385.770111,119.069603 
	C386.155212,101.337204 402.140533,85.534859 423.469727,86.571739 
	C440.917572,87.419937 456.264160,102.671478 456.332703,120.463310 
	C456.445557,149.761444 456.408691,179.060211 456.410065,208.358704 
	C456.411774,244.312057 456.536407,280.266327 456.314941,316.218384 
	C456.197266,335.319763 439.960114,350.459106 420.457001,350.298706 
	C401.425598,350.142181 385.831787,334.648865 385.608521,315.655243 
	C385.452057,302.346375 385.319702,289.037231 385.207642,275.272156 
z"/>
</svg>